<svg width="23" height="22" viewBox="0 0 23 22" fill="none" xmlns="http://www.w3.org/2000/svg">
<g clip-path="url(#clip0_1_39)">
<path d="M4.79167 3.66663H8.625L10.5417 8.24996L8.14583 9.62496C9.17217 11.6155 10.8564 13.2266 12.9375 14.2083L14.375 11.9166L19.1667 13.75V17.4166C19.1667 17.9029 18.9647 18.3692 18.6053 18.713C18.2458 19.0568 17.7583 19.25 17.25 19.25C13.5118 19.0327 9.98598 17.5142 7.33779 14.9812C4.68961 12.4482 3.10217 9.07563 2.875 5.49996C2.875 5.01373 3.07693 4.54741 3.43638 4.2036C3.79582 3.85978 4.28334 3.66663 4.79167 3.66663" stroke="white" stroke-width="1.5" stroke-linecap="round" stroke-linejoin="round"/>
<path d="M14.375 6.41663C14.8833 6.41663 15.3708 6.60978 15.7303 6.9536C16.0897 7.29741 16.2917 7.76373 16.2917 8.24996" stroke="white" stroke-width="1.5" stroke-linecap="round" stroke-linejoin="round"/>
<path d="M14.375 2.75C15.9 2.75 17.3625 3.32946 18.4409 4.36091C19.5192 5.39236 20.125 6.79131 20.125 8.25" stroke="white" stroke-width="1.5" stroke-linecap="round" stroke-linejoin="round"/>
</g>
<defs>
<clipPath id="clip0_1_39">
<rect width="23" height="22" fill="white"/>
</clipPath>
</defs>
</svg>
